<svg width="20" height="20" viewBox="0 0 20 20" fill="none" xmlns="http://www.w3.org/2000/svg">
<path d="M9.99984 13.3334C11.8382 13.3334 13.3332 11.8384 13.3332 10C13.3332 8.16169 11.8382 6.66669 9.99984 6.66669C8.1615 6.66669 6.6665 8.16169 6.6665 10C6.6665 11.8384 8.1615 13.3334 9.99984 13.3334ZM9.99984 8.33335C10.9032 8.33335 11.6665 9.09669 11.6665 10C11.6665 10.9034 10.9032 11.6667 9.99984 11.6667C9.0965 11.6667 8.33317 10.9034 8.33317 10C8.33317 9.09669 9.0965 8.33335 9.99984 8.33335Z" fill="#9397AD"/>
<path d="M2.37086 13.4467L3.20419 14.8884C3.64669 15.6525 4.71169 15.9392 5.47919 15.4967L5.92003 15.2417C6.40503 15.6225 6.93753 15.935 7.50003 16.1684V16.6667C7.50003 17.5859 8.24753 18.3334 9.16669 18.3334H10.8334C11.7525 18.3334 12.5 17.5859 12.5 16.6667V16.1684C13.0625 15.935 13.595 15.6225 14.08 15.2425L14.5209 15.4975C15.29 15.9392 16.3525 15.6542 16.7967 14.8884L17.6292 13.4475C18.0892 12.6517 17.8159 11.63 17.02 11.1709L16.5992 10.9275C16.6442 10.6184 16.6667 10.3092 16.6667 10C16.6667 9.69085 16.6442 9.38085 16.5992 9.07419L17.02 8.83085C17.8159 8.37085 18.0892 7.35002 17.6292 6.55419L16.7967 5.11335C16.3542 4.34669 15.29 4.05919 14.5209 4.50335L14.08 4.75835C13.595 4.37752 13.0625 4.06502 12.5 3.83169V3.33335C12.5 2.41419 11.7525 1.66669 10.8334 1.66669H9.16669C8.24753 1.66669 7.50003 2.41419 7.50003 3.33335V3.83169C6.93753 4.06502 6.40503 4.37752 5.92003 4.75752L5.47919 4.50252C4.70919 4.06002 3.64586 4.34669 3.20336 5.11252L2.37086 6.55335C1.91086 7.34919 2.18419 8.37085 2.98003 8.83002L3.40086 9.07335C3.35586 9.38085 3.33336 9.69085 3.33336 10C3.33336 10.3092 3.35586 10.6184 3.40086 10.9259L2.98003 11.1692C2.18419 11.6292 1.91086 12.6509 2.37086 13.4467ZM5.14253 11.1484C5.04836 10.7709 5.00003 10.3842 5.00003 10C5.00003 9.61502 5.04836 9.22835 5.14169 8.85169C5.23169 8.49085 5.07253 8.11419 4.75003 7.92835L3.81419 7.38669L4.64586 5.94585L5.60003 6.49752C5.92003 6.68169 6.32253 6.63502 6.59003 6.37919C7.15919 5.84002 7.84586 5.43669 8.57669 5.21335C8.92753 5.10669 9.16669 4.78252 9.16669 4.41669V3.33335H10.8334V4.41669C10.8334 4.78252 11.0725 5.10669 11.4234 5.21335C12.1542 5.43752 12.8409 5.84002 13.41 6.37919C13.6775 6.63502 14.0817 6.68085 14.4 6.49752L15.3534 5.94669L16.1867 7.38752L15.25 7.92835C14.9275 8.11502 14.7684 8.49169 14.8584 8.85169C14.9517 9.22835 15 9.61502 15 10C15 10.3842 14.9517 10.7709 14.8575 11.1484C14.7684 11.5092 14.9275 11.8859 15.25 12.0717L16.1859 12.6125L15.3542 14.0534L14.4 13.5025C14.0809 13.3184 13.6775 13.3642 13.41 13.6209C12.8409 14.16 12.1542 14.5634 11.4234 14.7867C11.0725 14.8934 10.8334 15.2175 10.8334 15.5834L10.835 16.6667H9.16669V15.5834C9.16669 15.2175 8.92753 14.8934 8.57669 14.7867C7.84586 14.5625 7.15919 14.16 6.59003 13.6209C6.43169 13.4692 6.22503 13.3917 6.01669 13.3917C5.87336 13.3917 5.73003 13.4284 5.60003 13.5034L4.64669 14.055L3.81336 12.6142L4.75003 12.0717C5.07253 11.8859 5.23169 11.5092 5.14253 11.1484Z" fill="#9397AD"/>
</svg>
